<mxfile host="app.diagrams.net" agent="Mozilla/5.0 (Windows NT 10.0; Win64; x64) AppleWebKit/537.36 (KHTML, like Gecko) Chrome/138.0.0.0 Safari/537.36" version="28.0.6">
  <diagram name="Page-1" id="orq-G7zIQOyVoxyDX9AK">
    <mxGraphModel dx="872" dy="473" grid="1" gridSize="10" guides="1" tooltips="1" connect="1" arrows="1" fold="1" page="1" pageScale="1" pageWidth="850" pageHeight="1100" math="0" shadow="0">
      <root>
        <mxCell id="0" />
        <mxCell id="1" parent="0" />
        <mxCell id="k6MQ1R_FnLZfUIwiuMNT-1" value="start" style="html=1;dashed=0;whiteSpace=wrap;shape=mxgraph.dfd.start" vertex="1" parent="1">
          <mxGeometry x="260" y="60" width="80" height="30" as="geometry" />
        </mxCell>
        <mxCell id="k6MQ1R_FnLZfUIwiuMNT-2" value="stop" style="html=1;dashed=0;whiteSpace=wrap;shape=mxgraph.dfd.start" vertex="1" parent="1">
          <mxGeometry x="260" y="390" width="80" height="30" as="geometry" />
        </mxCell>
        <mxCell id="k6MQ1R_FnLZfUIwiuMNT-3" value="I have message to you&amp;nbsp;" style="shape=display;whiteSpace=wrap;html=1;" vertex="1" parent="1">
          <mxGeometry x="260" y="120" width="80" height="40" as="geometry" />
        </mxCell>
        <mxCell id="k6MQ1R_FnLZfUIwiuMNT-5" value="I have message to you&amp;nbsp;" style="shape=display;whiteSpace=wrap;html=1;" vertex="1" parent="1">
          <mxGeometry x="260" y="290" width="80" height="40" as="geometry" />
        </mxCell>
        <mxCell id="k6MQ1R_FnLZfUIwiuMNT-6" value="message()" style="shape=process;whiteSpace=wrap;html=1;backgroundOutline=1;" vertex="1" parent="1">
          <mxGeometry x="240" y="190" width="120" height="60" as="geometry" />
        </mxCell>
        <mxCell id="k6MQ1R_FnLZfUIwiuMNT-7" value="message()" style="html=1;dashed=0;whiteSpace=wrap;shape=mxgraph.dfd.start" vertex="1" parent="1">
          <mxGeometry x="550" y="150" width="80" height="30" as="geometry" />
        </mxCell>
        <mxCell id="k6MQ1R_FnLZfUIwiuMNT-8" value="return" style="html=1;dashed=0;whiteSpace=wrap;shape=mxgraph.dfd.start" vertex="1" parent="1">
          <mxGeometry x="550" y="400" width="80" height="30" as="geometry" />
        </mxCell>
        <mxCell id="k6MQ1R_FnLZfUIwiuMNT-10" value="King of the Britons" style="shape=display;whiteSpace=wrap;html=1;" vertex="1" parent="1">
          <mxGeometry x="550" y="310" width="80" height="40" as="geometry" />
        </mxCell>
        <mxCell id="k6MQ1R_FnLZfUIwiuMNT-11" value="I am auther" style="shape=display;whiteSpace=wrap;html=1;" vertex="1" parent="1">
          <mxGeometry x="550" y="220" width="80" height="40" as="geometry" />
        </mxCell>
      </root>
    </mxGraphModel>
  </diagram>
</mxfile>
